<svg width="26" height="25" viewBox="0 0 26 25" fill="none" xmlns="http://www.w3.org/2000/svg">
<path fill-rule="evenodd" clip-rule="evenodd" d="M15.215 2.6602C14.3976 2.31498 13.501 2.125 12.5641 2.125C9.0894 2.125 6.1704 4.73764 5.78668 8.19105L5.52439 10.5517C5.51279 10.6561 5.50791 10.6999 5.50262 10.7425C5.38613 11.6821 5.08026 12.5882 4.60351 13.4062C4.58186 13.4433 4.55923 13.4811 4.50517 13.5712L3.90305 14.5747L3.87628 14.6193C3.60889 15.0649 3.36679 15.4683 3.20975 15.8105C3.04942 16.1599 2.88419 16.6347 3.0077 17.1633C3.09495 17.5368 3.28774 17.8773 3.56308 18.1442C3.95284 18.5221 4.44498 18.6247 4.82707 18.667C5.2013 18.7084 5.67177 18.7084 6.1914 18.7083H6.19142L6.24347 18.7083H18.8847L18.9367 18.7083H18.9367C19.4564 18.7084 19.9268 18.7084 20.3011 18.667C20.6832 18.6247 21.1753 18.5221 21.5651 18.1442C21.8404 17.8773 22.0332 17.5368 22.1204 17.1633C22.2439 16.6347 22.0787 16.1599 21.9184 15.8105C21.7614 15.4683 21.5193 15.0649 21.2519 14.6194L21.2519 14.6193L21.2251 14.5747L20.623 13.5712C20.5689 13.4811 20.5463 13.4433 20.5246 13.4062C20.1352 12.738 19.8597 12.0109 19.7084 11.2549C19.4181 11.3064 19.1192 11.3333 18.8141 11.3333C18.4207 11.3333 18.0378 11.2887 17.6701 11.2041C17.8381 12.3351 18.2203 13.4243 18.7967 14.4133C18.8255 14.4627 18.8549 14.5118 18.9042 14.594L18.908 14.6002L19.5101 15.6037C19.813 16.1085 19.9955 16.4156 20.1006 16.6446L20.1143 16.6752L20.0811 16.6791C19.8306 16.7069 19.4733 16.7083 18.8847 16.7083H6.24347C5.65479 16.7083 5.29754 16.7069 5.04705 16.6791L5.01379 16.6752L5.02751 16.6446C5.13262 16.4156 5.31517 16.1085 5.61804 15.6037L6.22016 14.6002L6.22379 14.5941L6.22381 14.5941C6.27317 14.5118 6.30262 14.4627 6.33142 14.4133C6.94438 13.3617 7.33765 12.1966 7.48742 10.9886C7.49446 10.9318 7.50079 10.8749 7.51139 10.7795L7.51216 10.7726L7.77445 8.41191C8.04562 5.97137 10.1085 4.125 12.5641 4.125C13.0955 4.125 13.6085 4.21148 14.089 4.37175C14.3461 3.72547 14.732 3.1444 15.215 2.6602ZM17.7176 4.4782C17.1252 4.84556 16.7307 5.50171 16.7307 6.25C16.7307 6.35591 16.7386 6.45997 16.7539 6.56162C16.9269 6.8656 17.0681 7.19083 17.1726 7.53304C17.5539 8.02022 18.1474 8.33333 18.8141 8.33333C18.9992 8.33333 19.1787 8.30919 19.3495 8.26387L19.3414 8.19105C19.1835 6.76988 18.5963 5.49111 17.7176 4.4782Z" fill="#474747"/>
<path d="M9.54545 18.4007C9.72349 19.3974 10.1158 20.2782 10.6616 20.9063C11.2073 21.5345 11.876 21.875 12.564 21.875C13.2519 21.875 13.9206 21.5345 14.4663 20.9063C15.0121 20.2782 15.4044 19.3974 15.5825 18.4007" stroke="#474747" stroke-width="2" stroke-linecap="round"/>
<circle cx="18.814" cy="6.24996" r="2.58333" fill="#474747" stroke="#474747"/>
<circle cx="18.5" cy="6.5" r="3.5" fill="#EF0000"/>
</svg>
